<svg xmlns="http://www.w3.org/2000/svg" width="129.605" height="59.57" viewBox="0 0 129.605 59.57">
  <g id="Logo" transform="translate(-60.395 -29.5)">
    <path id="line" d="M128.843,291.88s-5.931.361-12.04,1.026-12.392,1.635-13.133,2.609c-1.45,1.948,2.543,3.458,13.4,1.882,5.427-.787,31.515-2.963,57.635-3.815,13.054-.438,26.106-.6,36.508-.389,2.6,0,5.034.138,7.263.183,2.227.081,4.251.074,6.019.188,3.54.174,6.09.258,7.305.219,6.061-.036-11.928-2.851-35.336-3.294-11.693-.315-24.707-.256-36.733.066S136.659,291.42,128.843,291.88Z" transform="translate(-42.988 -208.984)" fill="rgba(114,19,0,0.1)"/>
    <path id="logo-2" data-name="logo" d="M289.951-151.055a3.871,3.871,0,0,1-2.808-1.924,4.8,4.8,0,0,1-.284-3.568,3.272,3.272,0,0,1,3.6-1.452,2.9,2.9,0,0,1,1.734,2.336c-.031.379-.22.443-.316.1-.095-.38-.347-.6-.85-.823a1.228,1.228,0,0,0-.949,0,3.656,3.656,0,0,0-2.493,1.673c-.125.16-.031.221.157.381.886.663,3.411.694,5.619.062a8.7,8.7,0,0,0,3.852-2.177c.725-.853.725-.884.157-1.453-1.418-1.326-5.553-2.619-9.151-2.873l-.789-.093-.348.85a23.942,23.942,0,0,1-4.228,7.639,4.968,4.968,0,0,1-2.147,1.1,3.854,3.854,0,0,1-3.029,0c-.727-.286-.98-.473-.98-1.04,0-.507.157-.507.694-.286.443.16.537.286.537.6,0,.282.126.282.663,0,.473-.221.759-.442,1.483-1.391a23.4,23.4,0,0,0,2.3-4.1c.253-.507.568-1.17.694-1.453a14.5,14.5,0,0,0,.63-1.357l.316-.758-.126-.853c-.19-1.072-.157-1.167.568-1.388l.569-.16.38-.881a79.723,79.723,0,0,0,2.9-7.7c.822-2.589,1.075-3.377,1.075-3.377a17.235,17.235,0,0,0-3.629.914,29.081,29.081,0,0,0-6.944,3.914c-2.493,2.115-4.04,4.829-3.945,6.943a2.807,2.807,0,0,0,1.165,2.115,3.432,3.432,0,0,0,2.084,1.073c.5.064.6.094.695.284.188.346.095.473-.412.63a3.522,3.522,0,0,1-3.061-1.418,10.432,10.432,0,0,1-1.355-2.717,7.869,7.869,0,0,1-.1-3.755,10.3,10.3,0,0,1,3.061-4.892,22.965,22.965,0,0,1,9.627-5.68,24,24,0,0,1,3.566-.884c.473-.064.5-.1.663-.443a.83.83,0,0,1,.221-.41,1.369,1.369,0,0,1,.473.284l.283.283.788-.091a18.87,18.87,0,0,1,4.262,0c2.652.472,4.673,1.544,5.652,3.092a7.041,7.041,0,0,1,1.041,4.416,5.966,5.966,0,0,1-2.115,4.612c-1.926,1.924-4.735,3.281-8.649,4.352l-.978.286.978.19a12.181,12.181,0,0,1,4.734,1.925c1.011.756,1.452,2.051,1.391,4.006a3.014,3.014,0,0,1-.346,1.673,6.688,6.688,0,0,1-4.231,3.378,9.175,9.175,0,0,1-2.8.445A7.084,7.084,0,0,1,289.951-151.055Zm2.778-24.9-.82.064L291.5-174c-.473,1.765-.788,3.122-1.421,5.3-.126.5-.536,1.734-.82,2.649-.346.949-.631,1.8-.631,1.8,0,.19.758-.063,2.525-.6a27.484,27.484,0,0,0,8.743-4.387,7.059,7.059,0,0,0,2.492-2.9c.252-.98-1.829-2.684-3.945-3.281a17.672,17.672,0,0,0-4.587-.587C293.445-176.007,293.063-175.991,292.729-175.957Zm87.7,24.082a4.038,4.038,0,0,1-1.8-1.547c-.315-.441-.315-.441-.315-1.482a5.918,5.918,0,0,1,.315-2.146,2.939,2.939,0,0,1,.379-1.2,7.769,7.769,0,0,1,.537-1.261,33.913,33.913,0,0,1,1.642-3.378l.253-.38-.379.38c-.442.5-1.2,1.514-1.989,2.65a17.7,17.7,0,0,1-3.632,4.229,2.044,2.044,0,0,1-2.177-1.04c-.567-.978.066-3.566,1.7-6.154.536-.915.536-.979,0-.443-1.452,1.578-2.272,2.935-4.2,6.754l-1.327,2.811h-.316a2.731,2.731,0,0,1-1.482-.537c-.317-.283-.443-.916-.379-1.957a8.8,8.8,0,0,1,.569-2.3,21.385,21.385,0,0,1,1.734-4.166,35.929,35.929,0,0,0,2.051-4.639c.064-.537.128-.633.7-.38.568.315,1.136.821,1.2,1.264.126.724-.062,1.544-1.641,5.584-.38,1.076-.727,1.96-.727,1.96a7.063,7.063,0,0,1,.473-.76,21.8,21.8,0,0,1,3.948-5.617c1.355-1.388,1.481-1.483,2.051-1.167a4.815,4.815,0,0,1,.757.535c.442.567.378.853-1.2,4.8-.253.473-.253.568,1.327-1.673,1.86-2.428,3.849-4.608,4.669-4.986.441-.251.7-.095,1.264.5a2.587,2.587,0,0,1,.946,1.611,12.22,12.22,0,0,1-1.389,3.63c-.442,1.165-1.042,2.619-1.264,3.186-.85,1.928-1.67,4.737-1.482,4.737a9.248,9.248,0,0,0,1.925-2.432c1.2-1.924,2.682-4.386,2.872-4.513.066-.064.127-.064.284.063l.22.158-.6,1.293c-.6,1.3-1.957,4.166-2.525,5.272-.254.38-.474.914-.631,1.135a4.222,4.222,0,0,1-.79,1.074c-.377.6-.443.694-.82.694A1.379,1.379,0,0,1,380.43-151.875Zm-41.339,0a4.022,4.022,0,0,1-1.8-1.547c-.316-.441-.316-.441-.316-1.482a5.9,5.9,0,0,1,.316-2.146,2.916,2.916,0,0,1,.377-1.2,7.605,7.605,0,0,1,.537-1.261,33.6,33.6,0,0,1,1.643-3.378l.251-.38-.378.38c-.442.5-1.2,1.514-1.99,2.65a17.665,17.665,0,0,1-3.63,4.229,2.043,2.043,0,0,1-2.177-1.04c-.568-.978.064-3.566,1.7-6.154.537-.915.537-.979,0-.443-1.453,1.578-2.272,2.935-4.2,6.754l-1.325,2.811h-.317a2.731,2.731,0,0,1-1.483-.537c-.316-.283-.441-.916-.377-1.957a8.745,8.745,0,0,1,.567-2.3,21.33,21.33,0,0,1,1.735-4.166,36,36,0,0,0,2.05-4.639c.066-.537.13-.633.7-.38.57.315,1.137.821,1.2,1.264.126.724-.061,1.544-1.639,5.584-.38,1.076-.727,1.96-.727,1.96a6.791,6.791,0,0,1,.472-.76,21.758,21.758,0,0,1,3.948-5.617c1.357-1.388,1.483-1.483,2.051-1.167a4.622,4.622,0,0,1,.758.535c.442.567.378.853-1.2,4.8-.251.473-.251.568,1.327-1.673,1.86-2.428,3.85-4.608,4.669-4.986.443-.251.7-.095,1.265.5a2.589,2.589,0,0,1,.945,1.611,12.232,12.232,0,0,1-1.388,3.63c-.443,1.165-1.043,2.619-1.264,3.186-.85,1.928-1.671,4.737-1.483,4.737a9.233,9.233,0,0,0,1.924-2.432c1.2-1.924,2.684-4.386,2.874-4.513.064-.064.126-.064.284.063l.22.158-.6,1.293c-.6,1.3-1.956,4.166-2.523,5.272-.256.38-.476.914-.633,1.135a4.2,4.2,0,0,1-.79,1.074c-.377.6-.441.694-.818.694A1.385,1.385,0,0,1,339.091-151.875Zm6.513-2.274a1.7,1.7,0,0,1-1.391-1.7c-.187-1.672.853-4.482,3.156-8.995a16.229,16.229,0,0,1,1.264-2.492c.315-.634.5-.949.628-.949a2.937,2.937,0,0,1,1.137.949c.22.283.22.41.13,1.04-.13.316-.537,1.547-.98,2.809-1.137,2.841-1.673,4.291-1.547,4.291,0,0,.41-.914.853-1.986a29.872,29.872,0,0,1,3.849-7.324c.222-.187.5-.408.5-.408a4.415,4.415,0,0,1,1.486.944c.408.634.22,2.084-.95,4.925a19.425,19.425,0,0,0-.914,2.492c-.126.537-.22.949-.22.949-.126.094-.22,0-.409,0a2.561,2.561,0,0,0-.757-.316c-1.262-.412-1.548-1.357-1.044-3.031.22-.441.317-.727.22-.727,0,0-.945,1.99-1.578,3.472-.187.6-.82,2.148-1.261,3.411-.411,1.261-.726,2.4-.821,2.524-.054.177-.247.255-.536.255A3.389,3.389,0,0,1,345.6-154.149Zm12.533,0a2.463,2.463,0,0,1-2.111-1.955,8.558,8.558,0,0,1-.064-3.408,17.817,17.817,0,0,1,2.175-6,7,7,0,0,1,2.812-2.683,2.582,2.582,0,0,1,1.7.284c.346.127.379.127.885-.124a1.612,1.612,0,0,1,1.1-.222,2.487,2.487,0,0,1,1.643.82c.19.222.284.412.315,1.231a17.259,17.259,0,0,1-4.672,11.174,3.7,3.7,0,0,1-2.461.946c-.117.008-.246.012-.377.012A5.032,5.032,0,0,1,358.137-154.149Zm1.548-7.858a13.526,13.526,0,0,0-.755,5.335c.061.694.313,1.421.473,1.421a5.363,5.363,0,0,0,.818-.7,20.548,20.548,0,0,0,4.2-8.016,11.4,11.4,0,0,0,.507-3.06l-.032-.286-.6.507a14,14,0,0,0-2.492,3.186,26.1,26.1,0,0,0-2.116,5.523c-.094.663-.158.728-.5.6-.441-.16-.158-1.99,1.2-6.093.129-.41.411-.977.38-.977A12.666,12.666,0,0,0,359.685-162.007ZM316.8-154.149a2.466,2.466,0,0,1-2.113-1.955,8.558,8.558,0,0,1-.064-3.408,17.836,17.836,0,0,1,2.177-6,6.981,6.981,0,0,1,2.809-2.683,2.585,2.585,0,0,1,1.706.284c.347.127.378.127.885-.124a1.616,1.616,0,0,1,1.1-.222,2.485,2.485,0,0,1,1.642.82c.19.222.286.412.317,1.231a17.259,17.259,0,0,1-4.673,11.174,3.7,3.7,0,0,1-2.461.946c-.118.008-.246.012-.377.012A5,5,0,0,1,316.8-154.149Zm1.547-7.858a13.531,13.531,0,0,0-.757,5.335c.064.694.314,1.421.474,1.421a5.284,5.284,0,0,0,.82-.7,20.569,20.569,0,0,0,4.2-8.016,11.441,11.441,0,0,0,.507-3.06l-.031-.286-.6.507a14.008,14.008,0,0,0-2.494,3.186,26.05,26.05,0,0,0-2.115,5.523c-.1.663-.157.728-.5.6-.443-.16-.16-1.99,1.2-6.093.128-.41.411-.977.381-.977A12.593,12.593,0,0,0,318.347-162.007Zm-13.8,7.858a2.463,2.463,0,0,1-2.111-1.955,8.524,8.524,0,0,1-.064-3.408,17.817,17.817,0,0,1,2.175-6,6.991,6.991,0,0,1,2.812-2.683,2.58,2.58,0,0,1,1.7.284c.347.127.379.127.885-.124a1.615,1.615,0,0,1,1.1-.222,2.481,2.481,0,0,1,1.642.82c.19.222.286.412.317,1.231a17.255,17.255,0,0,1-4.673,11.174,3.7,3.7,0,0,1-2.461.946c-.118.008-.246.012-.377.012A5.021,5.021,0,0,1,304.548-154.149Zm1.547-7.858a13.489,13.489,0,0,0-.754,5.335c.06.694.313,1.421.472,1.421a5.284,5.284,0,0,0,.82-.7,20.572,20.572,0,0,0,4.2-8.016,11.4,11.4,0,0,0,.507-3.06l-.032-.286-.6.507a14.032,14.032,0,0,0-2.494,3.186,26.2,26.2,0,0,0-2.115,5.523c-.094.663-.157.728-.5.6-.442-.16-.16-1.99,1.2-6.093.13-.41.412-.977.381-.977A12.7,12.7,0,0,0,306.1-162.007Z" transform="translate(-206.409 228.491)" fill="#fd866e" stroke="rgba(0,0,0,0)" stroke-miterlimit="10" stroke-width="1"/>
    <path id="flower" d="M351.721-106.515H351.7a.523.523,0,0,1-.069-.008l.005,0a.176.176,0,0,0,.147-.1,1.592,1.592,0,0,0-.015-.925,6.621,6.621,0,0,1,1.237-1.346,26.776,26.776,0,0,0,4.652-5.129,27.343,27.343,0,0,0,4.216-9.824,25.132,25.132,0,0,1-3.341,9.844,17.411,17.411,0,0,1-2.541,3.364c6.238-.689,8.261-5.031,8.86-8.552.8-4.712-1.768-10.491-1.794-10.549a11.5,11.5,0,0,1-3.5,5.442l-.193.136c-1.482,1.043-4.567,3.213-5.85,6.188-1.319,3.057.871,6.748.893,6.785,0,0-.005,0-.01-.01a10.007,10.007,0,0,1-1.209-2.431,6.961,6.961,0,0,1,.194-5.32c.009-.022.932-2.2,4.645-4.941a11.4,11.4,0,0,0,1.213-1.043c1.2-1.183,3.224-3.541,3.349-6.035a.225.225,0,0,1,.11-.025c.2,0,.608.179,1.177,1.38a22.362,22.362,0,0,1,1.76,5.525,15.825,15.825,0,0,1,.135,5.121,10.434,10.434,0,0,1-2.2,5.106,10.962,10.962,0,0,1-2.122,1.987,11.114,11.114,0,0,1-6.007,2.163C355.151-109.388,352.552-106.515,351.721-106.515Z" transform="translate(-204.659 161)" fill="#a13c3c" stroke="rgba(0,0,0,0)" stroke-miterlimit="10" stroke-width="1"/>
  </g>
</svg>
