<?xml version="1.0" encoding="UTF-8"?>
<svg id="Layer_1" data-name="Layer 1" xmlns="http://www.w3.org/2000/svg" viewBox="0 0 799 543.66">
  <defs>
    <style>
      .cls-1 {
        fill: #fff;
        min-width: 85px;
        max-width: 90px;
      }
    </style>
  </defs>
  <path class="cls-1" d="M707,0H282.62c-76.11,0-137.8,61.86-137.8,138.18v26.26c0,9.03,7.3,16.35,16.3,16.35h0c9,0,16.3-7.32,16.3-16.35v-26.26c0-58.26,47.1-105.48,105.2-105.48h408.08c38.83,0,70.31,31.57,70.31,70.5v12.21c0,9.03,7.3,16.35,16.3,16.35h0c9,0,16.3-7.32,16.3-16.35v-28.55c0-47.95-38.91-86.85-86.62-86.85Z"/>
  <path class="cls-1" d="M744.71,510.97h-64.77c-9,0-16.3,7.32-16.3,16.35h0c0,9.03,7.3,16.35,16.3,16.35h97.37c9,0,16.3-7.32,16.3-16.35V247.15c0-9.03-7.3-16.35-16.3-16.35h0c-9,0-16.3,7.32-16.3,16.35v247.47c0,9.03-7.3,16.35-16.3,16.35Z"/>
  <path class="cls-1" d="M266.32,510.97c-49.1,0-88.9-39.91-88.9-89.14V218.92c0-9.03-7.3-16.35-16.3-16.35h0c-9,0-16.3,7.32-16.3,16.35v202.79c0,67.34,54.45,121.94,121.61,121.94h359.18c9,0,16.3-7.32,16.3-16.35h0c0-9.03-7.3-16.35-16.3-16.35H266.32Z"/>
  <path class="cls-1" d="M476,469.75c-88.45,0-160.4-72.15-160.4-160.84s71.96-160.84,160.4-160.84,160.42,72.15,160.42,160.84-71.97,160.84-160.42,160.84Zm0-288.99c-70.47,0-127.8,57.49-127.8,128.15s57.33,128.15,127.8,128.15,127.81-57.49,127.81-128.15-57.33-128.15-127.81-128.15Z"/>
  <path class="cls-1" d="M667.7,208.94c-7.68,3.04-16.35-.22-20.26-7.5-15.98-29.76-42.07-49.72-62.39-61.68-22.03-12.96-47.83-19.8-74.63-19.8h-212.75c-9,0-16.3-7.32-16.3-16.35h0c0-9.03,7.3-16.35,16.3-16.35h212.75c32.59,0,64.1,8.4,91.12,24.29,33.52,19.73,59.07,45.32,74.79,74.72,4.54,8.5,.36,19.1-8.58,22.64l-.05,.02Z"/>
  <ellipse class="cls-1" cx="777.26" cy="181.25" rx="21.74" ry="21.79"/>
  <path class="cls-1" d="M470.13,180.77H16.3c-9,0-16.3-7.32-16.3-16.35H0c0-9.03,7.3-16.35,16.3-16.35H470.13c9,0,16.3,7.32,16.3,16.35h0c0,9.03-7.3,16.35-16.3,16.35Z"/>
</svg>