<svg xmlns="http://www.w3.org/2000/svg" xmlns:xlink="http://www.w3.org/1999/xlink" width="147.5" height="51" viewBox="0 0 147.5 51"><defs><clipPath id="a"><rect x="-6" y="-3" width="33.328" height="30" fill="none"/></clipPath></defs><g transform="translate(-374.5 -41.5)"><g transform="translate(375 44)"><rect width="50" height="50" rx="11" transform="translate(0 -2)" fill="#075be8" stroke="rgba(0,0,0,0)" stroke-miterlimit="10" stroke-width="1"/><g transform="translate(17.294 10.776)" clip-path="url(#a)" style="isolation:isolate"><g transform="translate(-7 -3)"><g transform="translate(1.969)"><path d="M2079.722,2569.467l.519.03a1.387,1.387,0,0,0,1.118-.479l.357-.4a.044.044,0,0,1,.052-.011.049.049,0,0,1,.028.049l-.027.557a1.606,1.606,0,0,0,.446,1.2l.376.385a.053.053,0,0,1,.011.056.046.046,0,0,1-.046.03l-.518-.03a1.39,1.39,0,0,0-1.118.479l-.358.405a.044.044,0,0,1-.052.012.05.05,0,0,1-.028-.048l.027-.558a1.605,1.605,0,0,0-.445-1.2l-.376-.384a.052.052,0,0,1-.011-.056A.048.048,0,0,1,2079.722,2569.467Z" transform="translate(-2060.009 -2568.597)" fill="#fff"/><path d="M2035.439,2610.26l.081,1.214-1.668.483-.149-2.2Z" transform="translate(-2017.64 -2606.292)" fill="#fff"/><path d="M1846.932,2616.116c-.122.173-.394.249-1.258-.25a13.4,13.4,0,0,1-5.315-7.426l-.562,0-1.9,5.783,1.123-.009.155,2.306-6.8.05-.155-2.306.82-.006-.314-2.3-3.26.084s-1.7-.157-.225-1.6c.876-.856,3.9-4.13,3.9-4.13a2.331,2.331,0,0,1,1.661-.711l9.3-.069.195,2.884-.943.007a13.885,13.885,0,0,0,3.4,6.9S1847.238,2615.675,1846.932,2616.116Z" transform="translate(-1828.63 -2602.417)" fill="#fff"/><path d="M2094.323,2625.724l-.743-.042a1.988,1.988,0,0,0-1.6.687l-.513.581a.064.064,0,0,1-.075.016.073.073,0,0,1-.041-.07l.039-.8a2.3,2.3,0,0,0-.638-1.723l-.54-.551a.077.077,0,0,1-.016-.081.067.067,0,0,1,.066-.043l.743.042a1.99,1.99,0,0,0,1.6-.687l.513-.58a.063.063,0,0,1,.074-.017.072.072,0,0,1,.04.07l-.039.8a2.305,2.305,0,0,0,.638,1.723l.54.551a.076.076,0,0,1,.016.081A.067.067,0,0,1,2094.323,2625.724Z" transform="translate(-2069.702 -2617.916)" fill="#fff"/><path d="M2154.254,2586.812l-.484-.028a1.293,1.293,0,0,0-1.043.447l-.334.378a.041.041,0,0,1-.048.011.047.047,0,0,1-.026-.046l.025-.52a1.5,1.5,0,0,0-.416-1.122l-.352-.358a.05.05,0,0,1-.01-.053.045.045,0,0,1,.042-.028l.484.028a1.294,1.294,0,0,0,1.043-.447l.334-.378a.042.042,0,0,1,.049-.011.048.048,0,0,1,.026.046l-.026.52a1.5,1.5,0,0,0,.416,1.122l.352.359a.048.048,0,0,1,.01.052A.043.043,0,0,1,2154.254,2586.812Z" transform="translate(-2126.268 -2583.326)" fill="#fff"/></g><path d="M1819.306,2758.227l.022.3-15.835.1.837-3.09c.118-.363.242-.728.37-1.092a94.419,94.419,0,0,1,4.837-11.081c.419-.021,1.408.015,2.455,0H1812l3.326-.021a1.347,1.347,0,0,1,.69,1.2c.054.72-.7,6.119,1.389,9.127A13.957,13.957,0,0,1,1819.306,2758.227Z" transform="translate(-1803.493 -2728.629)" fill="#fff"/><path d="M2019.309,2654.909h0Z" transform="translate(-2002.402 -2647.638)" fill="#fff"/></g></g></g><text transform="translate(435 75)" fill="#fff" font-size="24" font-family="Sora-ExtraBold, Sora" font-weight="800"><tspan x="0" y="0">Hexafy</tspan></text></g></svg>